<?xml version="1.0" standalone="no"?>
<!DOCTYPE svg PUBLIC "-//W3C//DTD SVG 20010904//EN"
 "http://www.w3.org/TR/2001/REC-SVG-20010904/DTD/svg10.dtd">
<svg version="1.0" xmlns="http://www.w3.org/2000/svg"
 width="512.000000pt" height="512.000000pt" viewBox="0 0 512.000000 512.000000"
 preserveAspectRatio="xMidYMid meet">
<metadata>
Created by potrace 1.16, written by Peter Selinger 2001-2019
</metadata>
<g transform="translate(0.000000,512.000000) scale(0.100000,-0.100000)"
fill="#000000" stroke="none">
<path d="M4430 4811 c-14 -5 -43 -17 -65 -29 -61 -31 -3996 -3974 -4026 -4032
-33 -67 -38 -177 -9 -253 29 -77 100 -148 177 -177 76 -29 186 -24 253 9 67
34 4001 3966 4037 4036 38 72 43 179 13 258 -29 77 -100 148 -175 176 -57 21
-155 27 -205 12z"/>
<path d="M2256 3850 c-496 -56 -951 -219 -1357 -486 -221 -145 -444 -339 -610
-530 -105 -120 -289 -364 -289 -382 0 -16 178 -258 259 -352 166 -194 343
-354 577 -522 l50 -37 203 203 204 204 -94 63 c-52 34 -132 92 -178 128 -88
68 -321 294 -321 311 0 18 223 234 321 312 140 112 295 210 457 290 79 38 145
69 147 67 2 -2 -8 -37 -21 -78 -14 -40 -32 -123 -41 -185 -14 -94 -15 -129 -5
-227 10 -103 51 -263 80 -315 5 -10 51 30 171 150 l163 163 -30 44 c-40 60
-55 112 -50 174 12 139 128 247 268 247 61 0 138 -27 175 -62 21 -19 22 -18
415 375 217 217 392 397 388 400 -3 3 -65 15 -139 26 -105 17 -192 22 -399 24
-146 2 -300 -1 -344 -5z"/>
<path d="M3902 3227 l-202 -202 60 -33 c97 -54 239 -149 340 -230 101 -80 320
-294 320 -312 0 -16 -216 -229 -310 -304 -358 -288 -794 -474 -1249 -532 -123
-16 -415 -21 -516 -10 l-60 7 -239 -239 -239 -240 94 -21 c260 -57 451 -75
738 -68 381 9 680 70 1032 208 425 167 837 452 1136 787 100 112 313 394 313
414 0 17 -180 256 -280 373 -98 114 -247 258 -377 363 -101 81 -332 242 -349
242 -5 0 -100 -91 -212 -203z"/>
<path d="M2981 2306 c-660 -660 -616 -592 -378 -583 113 4 160 10 232 31 388
113 671 441 724 839 12 87 13 180 3 245 l-7 42 -574 -574z"/>
</g>
</svg>
